<?xml version="1.0" encoding="UTF-8"?>
<svg id="Layer_1" xmlns="http://www.w3.org/2000/svg" version="1.1" viewBox="0 0 40 40">
  <!-- Generator: Adobe Illustrator 29.6.0, SVG Export Plug-In . SVG Version: 2.1.1 Build 207)  -->
  <defs>
    <style>
      .st0 {
        fill: #152637;
      }

      .st1 {
        fill: #ffa81d;
      }
    </style>
  </defs>
  <path class="st0" d="M14.28,18.17c2.39-1.56,4.88-2.94,7.78-3.22,4.52-.43,8.9.05,12.98,2.2.85.45,1.69.91,2.56,1.33.38.18.8.28,1.31.45h-20.62s0-.04,0-.06c2.52-.18,5.05-.35,7.66-.53-.06-.35-.11-.67-.18-.99-.1-.51-.2-1.02-.33-1.52-.03-.12-.2-.28-.31-.29-1.9-.11-3.81-.14-5.59.62-1.11.48-2.16,1.12-3.2,1.75-.41.25-.78.43-1.27.38l-.79-.12ZM26.09,15.65c.28.82.53,1.62.82,2.4.04.1.26.18.39.18,1.57-.06,3.14-.14,4.71-.23.44-.02.88-.07,1.39-.12-1.49-1.12-5.44-2.32-7.3-2.23Z"/>
  <g>
    <path class="st0" d="M25.61,21.23c.08-.33.13-.62.24-.88.04-.1.22-.2.34-.2,1.36-.01,2.72-.04,4.07,0,1.48.04,2.09.84,1.8,2.29-.36,1.78-1.43,2.7-3.24,2.73-1.4.02-2.8,0-4.25,0,.25-.96.48-1.89.74-2.81.26-.91,0-.74.97-.76.26,0,.52,0,.87,0-.21.82-.42,1.61-.65,2.5.99-.04,1.95,0,2.88-.15.76-.12,1.36-1.57,1.06-2.27-.18-.41-.56-.44-.93-.44-1.07-.02-2.13-.02-3.2-.02-.21,0-.42,0-.68,0Z"/>
    <path class="st0" d="M37.84,24.08c.02.07.02.08.02.1q-.2,1-1.23,1c-.95,0-1.89.01-2.84-.01-1.14-.03-1.63-.58-1.48-1.69.08-.6.24-1.19.43-1.77.31-.96,1.02-1.5,2-1.54,1.37-.06,2.74-.01,4.12-.01,0,.06.02.11.01.15q-.22.95-1.19.95c-.81,0-1.62-.01-2.42,0-.64.01-.91.25-1.04.89h4.12c-.08.33-.11.63-.23.9-.04.1-.26.16-.41.17-1.11.01-2.23,0-3.34,0-.2,0-.46-.09-.49.25-.03.31.1.54.43.6.16.03.33.02.5.02,1.01,0,2.01,0,3.03,0Z"/>
    <path class="st0" d="M19.95,23.56c.37.54.71,1.05,1.09,1.62-.62,0-1.18,0-1.75,0-.07,0-.15-.09-.2-.16-.1-.13-.21-.27-.27-.42-.34-1.01-1.09-1.2-2.04-1.07-.23.03-.36.08-.41.32-.08.36-.17.71-.29,1.06-.04.12-.18.27-.28.28-.47.03-.94.01-1.46.01.23-.86.44-1.67.68-2.46.03-.1.28-.2.43-.2,1.28-.02,2.56,0,3.84-.03.23,0,.54-.02.68-.17.18-.18.3-.49.3-.74,0-.12-.35-.32-.55-.33-.91-.04-1.83-.02-2.74-.02-.17,0-.33,0-.57,0,.1-.39.18-.72.27-1.08,1.4,0,2.78-.05,4.17.02.84.04,1.17.52,1.12,1.36-.07,1.09-.63,1.67-2.03,2.03Z"/>
    <path class="st0" d="M23.24,20.16h1.67c-.45,1.63-.89,3.23-1.34,4.83-.02.08-.16.19-.25.19-.45.02-.91,0-1.43,0,.46-1.72.91-3.37,1.35-5.03Z"/>
  </g>
  <path class="st1" d="M9.99,20.71h-2.95c.15-.64.29-1.21.43-1.82h9c-.11.4-.2.79-.29,1.16-.1.52-.32.72-.86.69-.95-.05-1.9-.01-2.94-.01-.32,1.22-.68,2.4-.93,3.6-.14.67-.41.85-1.1.85-.42,0-.85,0-1.39,0,.36-1.52.69-2.94,1.04-4.45Z"/>
  <rect class="st1" x="3.04" y="21.24" width="3.7" height="1.03" rx=".21" ry=".21"/>
  <rect class="st1" x="1.08" y="19.16" width="3.8" height="1.03" rx=".21" ry=".21"/>
  <rect class="st1" x="5.22" y="19.16" width="1.78" height="1.03" rx=".21" ry=".21"/>
</svg>