<svg width="176" height="64" viewBox="0 0 176 64" fill="none" xmlns="http://www.w3.org/2000/svg">
<path d="M38.6299 2.00047C40.0405 2.44849 41.0765 3.43924 41.7578 4.78757L41.877 5.02293C42.4497 6.20824 42.7275 7.49868 42.7275 8.87058C42.7275 10.206 42.4318 11.5045 41.8584 12.7534L41.8525 12.7641L41.8477 12.7749C41.2289 14.0662 40.2577 15.126 38.998 15.9643L38.9795 15.977L38.9619 15.9878C37.5772 16.8516 35.8249 17.2114 33.8389 17.2114C32.9213 17.2114 31.8174 17.1391 30.5391 17.0024L30.5098 16.9995L30.4805 16.9956C29.6962 16.8796 28.873 16.7641 28.0107 16.6479C27.5992 19.0026 27.169 21.7312 26.7246 24.8364C26.2384 28.5004 25.8175 32.4559 25.4629 36.7036C25.1533 40.9459 24.9548 45.2554 24.8662 49.6323L24.8545 50.1997L24.4639 50.6098C23.5012 51.6242 22.3479 52.3734 21.0215 52.8501L21.0205 52.8491C19.8111 53.2996 18.5962 53.5366 17.3828 53.5366C15.7347 53.5366 14.2213 53.1073 12.8926 52.2231L12.8691 52.2075C11.3732 51.1687 10.712 49.5921 10.7695 47.7544V47.7475L10.8545 45.8061C10.9559 43.8153 11.1075 41.6765 11.3096 39.3911L11.3115 39.3696C11.625 36.3301 11.9829 33.2464 12.3857 30.1186C12.7877 26.9537 13.1897 23.9218 13.5918 21.0229L13.5957 21.0014C13.944 18.7419 14.2656 16.6717 14.5596 14.7915L13.8184 14.7378C13.0829 14.6946 12.4205 14.6743 11.8301 14.6743C10.0517 14.6743 8.47484 14.843 7.08984 15.1675L6.625 15.2925C5.56504 15.6088 4.68486 16.0892 3.95898 16.7192L1.53711 18.8218V15.6147C1.53711 12.7482 1.76336 10.3421 2.25195 8.43992L2.25488 8.42722L2.25879 8.4155C2.82071 6.37586 3.86584 4.74033 5.4873 3.69968L5.49707 3.69285L5.50781 3.68699C7.13385 2.6797 9.32341 2.26609 11.8975 2.26609C13.7643 2.26611 15.8194 2.42837 18.0576 2.74754L18.0566 2.74851C20.2844 3.01554 22.5341 3.30351 24.8057 3.61472L25.6299 3.72215C27.5351 3.95453 29.3119 4.0688 30.9619 4.06882C32.4761 4.06882 33.7812 3.92162 34.8896 3.645L34.9014 3.64207L35.2842 3.53757C36.1372 3.27624 36.6984 2.89598 37.0645 2.4575L37.6934 1.70359L38.6299 2.00047Z" fill="#3AA078" stroke="white" stroke-width="2.92601"/>
<path d="M57.314 18.4832C60.6216 18.4832 63.4461 19.0038 65.6997 20.1443H65.7007C67.8702 21.2068 69.5597 22.6407 70.6685 24.4822L70.8716 24.8133C71.854 26.4787 72.3549 28.2805 72.355 30.1951C72.355 32.2459 71.8181 34.2319 70.7847 36.1375L70.7856 36.1385C69.7714 38.0787 68.3155 39.6933 66.4468 40.9783L66.4409 40.9822C65.2913 41.7646 64.0184 42.3368 62.6343 42.7117C62.7554 42.8874 62.8736 43.067 62.9858 43.2527H62.9868C63.4268 43.9554 63.8739 44.7292 64.3286 45.5721L64.7856 46.4383L64.7896 46.4461L64.7935 46.4549C65.2762 47.4186 65.8463 48.3508 66.5044 49.2518C66.9216 49.7978 67.4518 50.0711 68.2554 50.0711C68.6196 50.0711 68.8174 49.9941 68.9302 49.9236C69.0774 49.7899 69.3014 49.5 69.5347 48.9178L70.1245 47.4442L71.5454 48.1531L71.8823 48.3211L72.4243 48.5916L72.6167 49.1668C72.8306 49.8074 72.9676 50.4485 73.019 51.0867C73.0984 51.6521 73.1411 52.1944 73.1411 52.7108C73.1411 55.3516 72.3987 57.6704 70.8481 59.5721L70.8423 59.5789L70.8374 59.5848C69.248 61.4886 67.1519 62.4626 64.6646 62.4627C63.1087 62.4627 61.6816 62.0823 60.4419 61.2733L60.3872 61.2361C59.2999 60.4547 58.3606 59.4671 57.563 58.2938L57.5522 58.2791L57.5425 58.2635C56.8209 57.1431 56.1841 55.9296 55.6304 54.6268L55.6206 54.6033L55.6108 54.5779C55.1253 53.3103 54.6585 52.0985 54.2104 50.9432L54.2036 50.9276L54.1978 50.9109C53.5399 49.0869 52.9388 47.5036 52.394 46.159C52.0838 47.5996 51.8098 49.007 51.5737 50.3817C51.1749 52.9211 50.9184 55.7668 50.8081 58.9227L50.7876 59.5233L50.3501 59.9363C49.546 60.6944 48.6252 61.2763 47.5981 61.6805L47.5991 61.6824C46.6066 62.0877 45.5773 62.2947 44.521 62.2947C42.8418 62.2947 41.3392 61.7073 40.0708 60.5818L40.0493 60.5623C38.6047 59.2271 38.064 57.1824 38.064 54.8387C38.064 53.2028 38.3093 51.4046 38.7778 49.4559L39.1392 48.0174C39.5181 46.5686 39.9504 45.09 40.4351 43.5818L40.4429 43.5584C41.1189 41.5716 41.7947 39.6401 42.4712 37.7645L42.9497 36.4149C43.4069 35.101 43.7997 33.8957 44.1294 32.7986C44.4983 31.5387 44.6816 30.5878 44.728 29.909C44.461 30.0963 44.1298 30.3824 43.7388 30.8016L43.73 30.8104L43.7212 30.8201C42.8339 31.7387 41.8772 33.0926 40.8647 34.9334L40.2778 36.0008L39.1216 35.616L38.7847 35.5047L37.7837 35.1707V34.116C37.7837 31.6571 38.3199 29.4102 39.4263 27.4139L39.6323 27.0535C40.6164 25.3857 41.8872 23.9541 43.437 22.7654L43.7739 22.5145C45.604 21.1758 47.6847 20.1718 50.0015 19.494L50.0083 19.492L50.4487 19.3699C52.657 18.7777 54.9469 18.4832 57.314 18.4832ZM55.3511 27.9158C55.3444 29.5909 55.2706 31.2177 55.1235 32.7957C55.0586 33.7157 54.9735 34.5631 54.8696 35.3358C55.8975 35.3091 56.7166 35.0715 57.3774 34.6688C58.2175 34.1407 58.8048 33.5378 59.1929 32.8738L59.1978 32.866L59.2017 32.8582C59.6491 32.1139 59.8345 31.4377 59.8345 30.8113C59.8344 30.0848 59.5725 29.4497 58.9399 28.8445L58.9175 28.8231L58.896 28.8006C58.4382 28.3237 57.501 27.9061 55.687 27.9061C55.5802 27.9061 55.468 27.9097 55.3511 27.9158Z" fill="#9AC7F0" stroke="white" stroke-width="2.92601"/>
<path d="M93.6489 18.4832C94.9233 18.4832 96.1006 18.8562 97.1362 19.5945L97.1353 19.5965C98.3509 20.4362 99.0517 21.7695 99.3979 23.325L99.481 23.6981L99.3706 24.0633C99.156 24.7772 98.8073 26.076 98.3208 27.9813L98.3198 27.9881C97.842 29.8225 97.3231 32.0928 96.7651 34.8035C96.2102 37.4994 95.6719 40.4775 95.1519 43.7391L95.1528 43.7401C94.6726 46.9847 94.2834 50.38 93.9868 53.9266C93.9863 53.935 93.9863 53.9435 93.9858 53.952L93.9849 53.9529C93.9465 54.5971 93.8901 55.346 93.8159 56.1981V56.2039C93.7433 57.0014 93.6883 57.8184 93.6519 58.6551L93.6284 59.1912L93.2642 59.5848C92.6637 60.234 91.8374 60.8099 90.8667 61.3348L90.8452 61.3465L90.8237 61.3572C89.7298 61.9032 88.5713 62.1824 87.3647 62.1824C85.8631 62.1823 84.5612 61.5479 83.5034 60.4442L83.481 60.4207L83.4595 60.3963C82.2971 59.0702 81.9185 56.9436 81.9185 54.5027V53.3572L81.9272 53.2772C81.9642 52.9451 81.9741 52.7722 81.9741 52.7108V52.6375L81.9819 52.5652C82.1328 51.0596 82.3396 49.2011 82.6021 46.993L82.603 46.9832L82.605 46.9725C82.9056 44.7217 83.2432 42.3781 83.6187 39.9422C83.9933 37.4738 84.3678 35.0981 84.7427 32.8152L84.7446 32.8035L84.7476 32.7918L85.3384 29.5877C85.5263 28.5937 85.705 27.6738 85.8745 26.8279C86.2095 25.1196 86.5066 23.8464 86.771 23.0984L86.7739 23.0906L86.7778 23.0818C87.307 21.6417 88.2577 20.5047 89.5806 19.7029V19.7039C90.8607 18.9133 92.2232 18.4833 93.6489 18.4832Z" fill="#EA6137" stroke="white" stroke-width="2.92601"/>
<path d="M121.63 1.93211C124.98 1.93213 127.943 2.43569 130.479 3.49363H130.48C132.98 4.49988 135.067 5.91053 136.695 7.74461H136.694C138.321 9.5346 139.523 11.591 140.296 13.9018H140.297C141.062 16.1516 141.44 18.5146 141.44 20.9819C141.44 23.9578 140.903 26.9381 139.844 29.9175L139.845 29.9184C138.817 32.8768 137.315 35.5989 135.344 38.0786L135.343 38.0776C133.505 40.3976 131.281 42.2966 128.68 43.77L128.154 44.0591L128.147 44.063C125.298 45.566 122.124 46.3041 118.656 46.3042C117.281 46.3042 115.895 46.1649 114.501 45.8901L113.902 45.7641C112.276 45.3989 110.759 44.8278 109.358 44.0464L109.336 44.0337L109.313 44.02C107.905 43.1677 106.739 42.071 105.831 40.7339L105.815 40.7114L105.801 40.6889C104.884 39.2251 104.456 37.527 104.456 35.6557V35.1518C104.456 34.8878 104.483 34.6063 104.522 34.3178H104.521C104.644 33.2204 104.902 31.8997 105.285 30.3716L105.29 30.355L105.294 30.3384C105.71 28.8272 106.183 27.2244 106.711 25.5307L107.479 23.0346C107.731 22.2072 107.978 21.3839 108.22 20.5659L108.224 20.5512L108.229 20.5376C108.745 18.9173 109.166 17.4531 109.493 16.145C109.71 15.2534 109.842 14.5252 109.906 13.9468C109.882 13.9679 109.857 13.9889 109.832 14.0112L109.513 14.3081C108.687 15.1004 107.647 16.5111 106.396 18.6421L105.795 19.6636L104.672 19.2895L104.335 19.1772L103.334 18.8442V17.7895C103.334 14.5444 104.058 11.6834 105.58 9.27781L105.584 9.27195L105.882 8.82468C107.405 6.62581 109.473 4.9508 112.046 3.79929L112.571 3.57078C115.221 2.46461 118.252 1.93211 121.63 1.93211ZM120.607 12.1391L120.688 12.7583C120.758 13.3805 120.792 14.0123 120.792 14.6528C120.792 16.4568 120.615 18.2921 120.267 20.1577L120.268 20.1587C119.964 21.974 119.603 23.7353 119.186 25.4428L119.187 25.4438C118.815 27.114 118.46 28.6747 118.125 30.1255L118.025 30.6362C117.809 31.8073 117.706 32.8249 117.706 33.6958C117.706 34.6635 117.911 35.2413 118.158 35.5825L118.202 35.6343C118.334 35.7697 118.681 35.9848 119.609 35.9848C120.805 35.9848 121.853 35.6486 122.797 34.9712C123.856 34.2007 124.795 33.1743 125.603 31.8637C126.423 30.5322 127.062 29.054 127.514 27.4233C127.966 25.7542 128.19 24.0935 128.19 22.438C128.19 20.4851 127.848 18.6727 127.173 16.9887L127.168 16.977L127.164 16.9653C126.554 15.364 125.572 14.0849 124.198 13.0962C123.255 12.4171 122.057 11.9517 120.561 11.7495C120.577 11.879 120.594 12.0087 120.607 12.1391Z" fill="#FAC03C" stroke="white" stroke-width="2.92601"/>
<path d="M163.349 18.4832C165.804 18.4832 167.899 18.7905 169.54 19.4988L169.539 19.4998C171.11 20.1256 172.396 21.0115 173.238 22.2361H173.239C174.041 23.3662 174.463 24.6302 174.463 25.9949C174.463 27.5105 173.984 28.9711 173.117 30.3563L173.112 30.3651L173.106 30.3738C172.201 31.7753 170.911 32.8869 169.304 33.7313L169.303 33.7303C167.808 34.5334 166.063 34.9386 164.116 35.0067C164.807 35.3108 165.403 35.7982 165.854 36.4959H165.856C166.552 37.5374 166.888 38.7206 166.888 39.9969C166.888 41.5187 166.406 42.9437 165.507 44.2449L165.506 44.244C164.495 45.7649 162.95 46.5008 161.104 46.5008C159.646 46.5008 158.127 45.9358 156.582 44.9901C155.363 46.0691 154.881 47.1846 154.881 48.3426C154.881 49.549 155.232 50.2433 155.746 50.6815C156.409 51.2129 157.297 51.5281 158.523 51.5281C160.101 51.5281 161.986 50.9841 164.21 49.7508C166.338 48.5337 168.274 46.7043 170.001 44.2059L170.795 43.0574L171.979 43.7967L172.428 44.076L173.14 44.5203L173.115 45.3592C173.035 48.1475 172.454 50.66 171.333 52.8611L171.334 52.8621C170.273 54.9801 168.854 56.7707 167.077 58.2147C165.373 59.63 163.463 60.7029 161.357 61.4305L161.334 61.4383C159.244 62.1202 157.109 62.4627 154.933 62.4627C152.261 62.4627 149.926 61.986 148.005 60.9402L147.993 60.9344L147.982 60.9285C146.133 59.8793 144.704 58.4969 143.77 56.7654L143.766 56.7586L143.763 56.7527C142.865 55.0454 142.416 53.2051 142.416 51.2547C142.416 49.528 142.755 47.8313 143.419 46.1736C144.089 44.5017 145.07 42.9851 146.349 41.6268L146.356 41.618L146.364 41.6102C147.157 40.7939 148.043 40.0832 149.017 39.4774C148.208 38.7314 147.529 37.9009 146.992 36.9822L146.969 36.9412C146.111 35.3573 145.67 33.681 145.67 31.9315C145.67 29.649 146.424 27.4774 147.84 25.4402L148.117 25.0565C149.541 23.1611 151.507 21.6265 153.95 20.4256L154.458 20.1863C157.023 19.0336 160 18.4832 163.349 18.4832ZM161.89 27.3455C161.516 27.3456 160.994 27.4857 160.296 27.9363C159.691 28.3491 159.146 28.9485 158.68 29.7869C158.258 30.544 158.022 31.4677 158.022 32.6043C158.023 33.1633 158.112 33.8422 158.314 34.6531C158.392 34.9489 158.489 35.2477 158.606 35.5496C158.887 35.4137 159.163 35.2931 159.436 35.1902L159.745 35.0799C160.372 34.8525 160.994 34.6973 161.602 34.6395L162.133 33.0838C162.707 31.4009 162.952 30.1171 162.952 29.1873C162.952 28.1826 162.732 27.7905 162.614 27.6639C162.403 27.4371 162.192 27.3455 161.89 27.3455Z" fill="#09679C" stroke="white" stroke-width="2.92601"/>
<path d="M96.4968 6.96171H96.8415C96.8415 6.89155 96.8209 6.8235 96.7829 6.7664L96.739 6.71268L96.6852 6.66972C96.6286 6.63203 96.5623 6.61121 96.4938 6.61112C96.4252 6.61112 96.3582 6.63193 96.3015 6.66972L96.2477 6.71268C96.1822 6.7782 96.1452 6.86801 96.1452 6.96171H96.4938M96.4968 6.96171L96.4938 6.95878M96.4968 6.96171H96.4938M96.4968 6.96171L96.4938 6.95878M96.4938 6.95878V6.96171M96.4938 6.95878V6.96171M91.2028 6.96171H91.5466C91.5466 6.89151 91.5261 6.82352 91.488 6.7664L91.444 6.71268L91.3913 6.66972C91.3345 6.63177 91.2676 6.61117 91.1989 6.61112C91.1302 6.61112 91.0633 6.63186 91.0065 6.66972L90.9538 6.71268C90.8882 6.7782 90.8503 6.86797 90.8503 6.96171H91.195M91.2028 6.96171L91.1989 6.9578M91.2028 6.96171H91.1989M91.2028 6.96171L91.1989 6.9578M91.1989 6.9578L91.195 6.96171M91.1989 6.9578L91.195 6.96171M91.1989 6.9578V6.96171M91.1989 6.9578V6.96171M91.195 6.96171H91.1989M99.0554 7.42362L99.2106 8.06229V8.72343C99.2105 10.981 97.8432 12.9212 95.8884 13.7644C96.1501 13.4361 96.3506 13.0584 96.4733 12.6482L97.4597 9.34745C97.7764 9.21936 98.0685 9.03011 98.3151 8.78397C98.7046 8.39517 98.9533 7.89361 99.0368 7.35624C99.0426 7.37863 99.0499 7.40112 99.0554 7.42362ZM88.6208 6.96171C88.6209 7.56003 88.8297 8.13632 89.2058 8.59452L89.3767 8.78397C89.6915 9.09825 90.0801 9.31992 90.5007 9.43827L90.1091 10.7488C89.8886 11.4863 89.9329 12.2737 90.2272 12.9773C88.9916 11.97 88.2029 10.4381 88.2028 8.72343V8.06132L88.3581 7.42265C88.4252 7.14692 88.5137 6.87958 88.6208 6.62186V6.96171ZM93.7761 3.23417C94.2088 3.23949 94.628 3.29279 95.029 3.3914L95.2878 3.45487L95.4226 3.43827L96.1931 3.82304L96.197 3.82499L96.2214 3.77421L96.3747 4.33378L96.9177 4.26347C97.1473 4.42842 97.363 4.61107 97.5642 4.80839L96.5153 5.98905C96.5132 5.99149 96.5111 5.99245 96.5104 5.99296L96.5085 5.99491C96.5068 5.99568 96.5033 5.99662 96.4987 5.99686C96.494 5.99707 96.4899 5.99654 96.488 5.99589L96.486 5.99393C96.4854 5.99355 96.4838 5.99253 96.4811 5.99003H96.4802L96.3854 5.90018L93.9157 3.55643V6.96171C93.9158 7.64555 94.1879 8.30118 94.6716 8.78397C95.1552 9.26665 95.8111 9.5369 96.4938 9.5369C96.5485 9.53689 96.6027 9.53156 96.6569 9.52811L94.3024 10.9842C93.8141 11.2861 93.1726 11.1234 92.8884 10.6287L92.78 10.4383L92.155 9.35136C92.4756 9.22328 92.771 9.03263 93.0202 8.78397C93.5039 8.30118 93.776 7.64555 93.7761 6.96171V3.23417ZM91.2204 5.98905C91.218 5.9917 91.2161 5.99253 91.2155 5.99296L91.2136 5.99491C91.2118 5.99569 91.2084 5.99665 91.2038 5.99686C91.1989 5.99707 91.1949 5.99655 91.1931 5.99589L91.1911 5.99393C91.1904 5.99349 91.1887 5.99239 91.1862 5.99003H91.1852L91.0905 5.90018L89.8933 4.76444C90.8747 3.82335 92.2051 3.24136 93.6716 3.23222L91.2204 5.98905Z" fill="#48A0FF" stroke="white" stroke-width="2.92601"/>
<path fill-rule="evenodd" clip-rule="evenodd" d="M96.5937 1.31901C97.301 2.12703 97.0436 2.72575 96.4971 3.13175L96.5006 3.13352L96.4897 3.13706C96.3185 3.26312 96.1196 3.37051 95.9132 3.45958L96.8712 3.33699C98.28 4.17471 99.3272 5.55472 99.7244 7.18848C99.7804 7.175 99.8389 7.16771 99.8991 7.16771C100.309 7.16771 100.642 7.49981 100.642 7.90948C100.642 8.31915 100.309 8.65126 99.8991 8.65126C99.8991 12.0652 97.1265 14.8327 93.7064 14.8327C90.2863 14.8327 87.5138 12.0652 87.5138 8.65126C87.1034 8.65126 86.7707 8.31915 86.7707 7.90948C86.7707 7.49981 87.1034 7.16771 87.5138 7.16771C87.5739 7.16771 87.6323 7.17495 87.6883 7.1884C88.3466 4.48055 90.7912 2.46982 93.7064 2.46982C94.2188 2.46982 94.7166 2.5321 95.1927 2.64923C95.953 2.5588 96.4371 1.75026 96.5937 1.31901ZM91.7549 10.8243C91.6296 11.2431 91.6762 11.6946 91.8843 12.0792C92.0924 12.4639 92.4451 12.7502 92.8648 12.8753C93.2844 13.0004 93.7367 12.954 94.122 12.7462C94.5074 12.5385 94.7943 12.1864 94.9196 11.7675C93.8615 12.4216 92.4711 12.0705 91.8519 10.993L91.7549 10.8243ZM92.4679 7.08529C91.9721 7.64264 91.1123 7.67909 90.571 7.1657L90.4863 7.08529C90.4863 7.3476 90.5907 7.59917 90.7765 7.78465C90.9623 7.97013 91.2143 8.07432 91.4771 8.07432C91.7399 8.07432 91.9919 7.97013 92.1777 7.78465C92.3635 7.59917 92.4679 7.3476 92.4679 7.08529ZM97.1743 7.08529C96.6785 7.64264 95.8187 7.67909 95.2774 7.1657L95.1927 7.08529C95.1927 7.3476 95.297 7.59917 95.4829 7.78465C95.6687 7.97013 95.9207 8.07432 96.1835 8.07432C96.4463 8.07432 96.6983 7.97013 96.8841 7.78465C97.0699 7.59917 97.1743 7.3476 97.1743 7.08529Z" fill="#EA6137"/>
</svg>
